# xmcd CD database file
# Copyright (C) 1993-1998 Ti Kan
#
# Track frame offsets:
#	150
#	16972
#	33260
#	48877
#	68682
#	73772
#	91097
#	111175
#	128395
#	142760
#	157017
#	174932
#	191690
#	208207
#	227222
#	244612
#	262505
#	274905
#	292955
#	312530
#	328297
#
# Disc length: 4743 seconds
#
# Revision: 1
# Processed by: cddbd v1.4PL0 Copyright (c) Steve Scherf et al.
# Submitted via: CDValet v3.31 - Copyright (c) 1997 Greg Leichner
#
DISCID=23128515
DTITLE=Various Singers And Musicgroups - Bravo Hits 18 [CD2]
DYEAR=1900
DGENRE=Blues
TTITLE0=C U When U Get There (Coolio Feat. 40 Thevz)
TTITLE1=I Wanna Be The Only One (Eternal)
TTITLE2=You Might Need Somebody (Shola Ama)
TTITLE3=So Help Me Girl (Garry Barlow)
TTITLE4=Special Message To All Fans (The Boyz)
TTITLE5=Let Me Show You The Way (The Boyz)
TTITLE6=Babe (Caught In The Act)
TTITLE7=I Can´t Get No Sleep (Touche)
TTITLE8=Crush On You (Aaron Carter)
TTITLE9=The Winner Takes It All (E-Rotic)
TTITLE10=Shadows Of The Night (DJ Bobo and VSOP)
TTITLE11=Moonlight (Down Low)
TTITLE12=Romeo and Juliet (Poetry ´N´ Motion)
TTITLE13=A-N-N-A (Freundeskreis)
TTITLE14=I Have Peace (Strike)
TTITLE15=Sekt oder Selters (Fettes Brot)
TTITLE16=One More Night (Amber)
TTITLE17=Still (Vivid)
TTITLE18=Bitter Sweet Synphony (The Verve)
TTITLE19=Catch Me (Bandits)
TTITLE20=D You Know What I Mean? (Oasis)
EXTD=
EXTT0=
EXTT1=
EXTT2=
EXTT3=
EXTT4=
EXTT5=
EXTT6=
EXTT7=
EXTT8=
EXTT9=
EXTT10=
EXTT11=
EXTT12=
EXTT13=
EXTT14=
EXTT15=
EXTT16=
EXTT17=
EXTT18=
EXTT19=
EXTT20=
PLAYORDER=
